<?xml version="1.0" standalone="no"?>
<!DOCTYPE svg PUBLIC "-//W3C//DTD SVG 20010904//EN"
 "http://www.w3.org/TR/2001/REC-SVG-20010904/DTD/svg10.dtd">
<svg version="1.0" xmlns="http://www.w3.org/2000/svg"
 width="4382.000000pt" height="1946.000000pt" viewBox="0 0 4382.000000 1946.000000"
 preserveAspectRatio="xMidYMid meet">

<g transform="translate(0.000000,1946.000000) scale(0.100000,-0.100000)"
fill="#000000" stroke="none">
<path d="M5581 18797 c-148 -364 -299 -733 -334 -819 l-65 -157 460 -252 c260
-142 463 -248 468 -243 4 5 150 368 324 806 173 438 326 824 340 857 l24 59
-377 163 c-207 89 -419 181 -473 204 l-96 43 -271 -661z"/>
<path d="M6836 18706 c-69 -160 -235 -546 -369 -858 l-244 -567 471 -204 c448
-193 471 -203 481 -183 15 31 672 1711 670 1714 -1 1 -200 89 -443 196 l-441
193 -125 -291z"/>
<path d="M7720 17931 c-139 -344 -292 -723 -340 -843 l-88 -216 227 -98 c124
-54 341 -149 481 -210 140 -61 256 -110 257 -109 2 1 136 377 298 836 163 459
302 851 310 871 l14 37 -102 39 c-56 22 -260 103 -454 180 l-352 139 -251
-626z"/>
<path d="M8891 17856 c-56 -160 -191 -547 -300 -861 -120 -347 -193 -572 -187
-575 6 -2 245 -72 531 -155 325 -95 522 -148 524 -141 7 17 398 1671 396 1673
-1 2 -195 81 -432 177 l-431 173 -101 -291z"/>
<path d="M9855 17341 c-58 -207 -161 -572 -229 -811 -70 -249 -118 -437 -113
-439 6 -2 211 -50 456 -106 l446 -102 9 26 c14 40 463 1576 461 1578 -1 2
-209 54 -462 116 l-461 114 -107 -376z"/>
<path d="M10925 17336 c-20 -77 -114 -438 -209 -801 -95 -363 -172 -661 -172
-662 1 -1 222 -57 493 -126 l491 -125 17 62 c317 1178 422 1571 421 1573 -1 1
-211 47 -466 103 -256 56 -481 105 -501 109 l-37 8 -37 -141z"/>
<path d="M3983 16632 c-164 -367 -297 -668 -294 -670 13 -7 1256 -429 1259
-427 4 4 579 1330 577 1333 -1 1 -258 90 -571 197 -313 108 -592 204 -620 215
l-52 19 -299 -667z"/>
<path d="M12086 17212 c-24 -81 -460 -1527 -471 -1558 l-13 -42 538 -135 538
-134 37 141 c176 678 372 1441 370 1443 -1 2 -220 68 -486 148 -266 80 -489
147 -496 150 -7 2 -14 -4 -17 -13z"/>
<path d="M43325 17103 c-253 -19 -461 -36 -462 -37 -3 -2 -420 -1500 -419
-1502 1 -1 228 11 506 27 278 16 519 29 536 29 l32 0 117 593 c194 981 184
927 166 926 -9 -1 -223 -17 -476 -36z"/>
<path d="M42155 16988 c-275 -17 -501 -31 -502 -32 -3 -2 -331 -1530 -329
-1532 2 -2 1011 88 1013 90 1 1 79 335 173 741 94 407 173 746 175 753 3 7 -3
11 -13 11 -9 -1 -242 -15 -517 -31z"/>
<path d="M41045 16893 c-264 -30 -481 -56 -482 -57 -3 -2 -410 -1480 -409
-1482 1 -2 1060 98 1063 100 1 1 70 321 153 711 83 391 155 727 160 748 4 20
5 37 1 36 -3 -1 -222 -26 -486 -56z"/>
<path d="M13135 16621 c-32 -130 -117 -481 -190 -781 l-132 -545 56 -13 c31
-7 250 -53 488 -101 l432 -88 11 51 c6 28 75 339 154 691 79 352 142 641 141
642 -1 2 -205 88 -453 192 l-450 188 -57 -236z"/>
<path d="M5543 16573 c-59 -135 -194 -440 -299 -677 -179 -405 -189 -432 -171
-441 32 -16 1082 -422 1085 -420 4 3 629 1370 627 1372 -1 2 -244 90 -541 197
-296 107 -551 199 -566 205 l-26 10 -109 -246z"/>
<path d="M39760 16753 c-355 -36 -646 -66 -647 -67 -3 -2 -410 -1500 -409
-1502 1 -2 1351 167 1353 169 1 1 85 332 186 735 113 445 181 732 174 731 -7
-1 -302 -31 -657 -66z"/>
<path d="M38460 16653 c-272 -19 -496 -36 -497 -37 -2 -2 -351 -1530 -349
-1532 1 -2 971 97 973 100 1 1 90 334 198 741 107 407 198 746 200 753 2 7 -3
11 -13 11 -9 -1 -240 -17 -512 -36z"/>
<path d="M37310 16528 c-267 -27 -486 -50 -487 -51 -2 -3 -311 -1481 -309
-1483 1 -2 980 68 983 70 1 0 71 334 157 741 86 407 158 748 160 758 2 9 -1
16 -7 16 -7 -1 -230 -24 -497 -51z"/>
<path d="M14201 16398 c-12 -51 -86 -367 -165 -703 -82 -352 -138 -612 -133
-614 32 -12 1002 -217 1005 -211 3 8 270 1524 268 1526 0 1 -201 20 -446 43
-245 23 -459 43 -477 46 l-31 6 -21 -93z"/>
<path d="M36080 16408 c-327 -33 -596 -61 -597 -62 -2 -2 -331 -1501 -329
-1502 1 -2 1251 107 1253 109 1 1 65 335 142 742 78 407 143 748 145 758 2 9
-1 16 -7 16 -7 -1 -280 -28 -607 -61z"/>
<path d="M15270 16363 c0 -12 -251 -1488 -256 -1505 -4 -14 65 -33 478 -135
405 -100 484 -117 487 -104 5 23 279 1666 277 1667 0 1 -206 18 -456 38 -250
20 -472 38 -492 41 -21 3 -38 2 -38 -2z"/>
<path d="M34855 16313 c-258 -25 -471 -46 -472 -47 -3 -2 -360 -1480 -359
-1482 1 -2 991 78 993 80 1 1 72 320 158 710 85 390 159 726 164 747 6 28 6
39 -3 38 -6 -1 -222 -22 -481 -46z"/>
<path d="M6647 15644 l-284 -663 386 -172 c212 -95 443 -198 513 -230 82 -37
128 -53 131 -46 3 7 138 315 300 684 l295 673 -127 49 c-69 27 -307 121 -528
209 l-402 159 -284 -663z"/>
<path d="M16340 16282 c0 -13 -249 -1674 -255 -1698 -4 -20 16 -25 520 -126
327 -65 525 -101 525 -94 0 6 56 425 124 931 68 506 123 921 122 921 0 1 -212
16 -471 33 -258 17 -491 33 -517 36 -27 3 -48 2 -48 -3z"/>
<path d="M33735 16194 c-275 -18 -519 -33 -542 -33 l-41 -1 -184 -742 c-102
-409 -184 -744 -184 -744 1 -3 1091 107 1093 110 1 1 88 321 193 711 105 391
192 716 195 723 2 7 -3 11 -13 11 -9 -1 -242 -16 -517 -35z"/>
<path d="M17520 16188 c0 -7 -58 -429 -129 -938 -71 -509 -128 -926 -127 -926
1 -2 1111 -62 1112 -60 2 1 52 1851 50 1853 0 0 -190 17 -421 37 -231 20 -435
39 -452 42 -23 3 -33 1 -33 -8z"/>
<path d="M32450 16098 c-305 -22 -556 -41 -557 -42 -3 -2 -380 -1530 -379
-1532 2 -2 1131 127 1133 130 1 1 88 330 193 731 105 402 192 736 195 743 2 7
-3 11 -13 11 -9 -1 -267 -19 -572 -41z"/>
<path d="M18570 16073 c0 -15 -27 -431 -59 -923 -32 -492 -58 -896 -57 -896 0
-1 223 -4 494 -7 l492 -5 0 27 c1 14 27 420 59 901 32 481 58 876 57 876 0 1
-197 11 -436 23 -239 12 -461 24 -492 27 l-58 5 0 -28z"/>
<path d="M19680 16003 c0 -15 -27 -422 -59 -903 -32 -481 -58 -876 -57 -877 1
-2 990 -91 992 -89 2 1 72 1821 70 1822 0 1 -194 16 -431 33 -236 17 -449 34
-472 37 -42 5 -43 4 -43 -23z"/>
<path d="M31280 15968 c-239 -33 -436 -61 -437 -62 -3 -2 -410 -1431 -409
-1432 1 -2 970 38 973 40 1 0 71 334 157 741 86 407 158 748 160 758 2 9 1 17
-2 16 -4 -1 -203 -28 -442 -61z"/>
<path d="M20750 15888 c-1 -29 -16 -435 -34 -903 -19 -467 -33 -851 -32 -851
1 -2 1011 -52 1012 -50 2 1 82 1811 80 1812 0 1 -199 9 -441 18 -242 9 -473
18 -512 21 l-73 6 0 -53z"/>
<path d="M30120 15913 c-278 -8 -506 -16 -507 -16 -2 -2 -251 -1542 -249
-1543 1 -2 951 78 953 80 1 1 88 332 193 736 105 404 193 741 195 748 3 8 -8
12 -38 11 -23 -1 -269 -8 -547 -16z"/>
<path d="M3591 15761 c-33 -75 -170 -384 -304 -688 l-244 -552 636 -274 636
-274 13 26 c21 41 579 1376 577 1379 -1 1 -284 119 -628 261 l-626 258 -60
-136z"/>
<path d="M27036 15666 c-31 -127 -114 -469 -184 -761 l-128 -530 545 -6 c300
-4 547 -6 548 -5 7 6 339 1521 334 1523 -3 1 -243 4 -533 6 l-526 5 -56 -232z"/>
<path d="M26024 15865 c-3 -13 -103 -353 -223 -757 l-217 -733 515 -7 c284 -3
517 -5 518 -4 1 1 80 339 176 751 l173 750 -245 6 c-135 4 -346 9 -469 12
l-222 5 -6 -23z"/>
<path d="M28768 15883 l-476 -3 -16 -73 c-9 -39 -88 -382 -174 -762 l-158
-690 649 -3 c358 -1 651 -1 653 0 1 2 63 341 138 753 75 413 138 758 140 768
4 16 -7 17 -137 15 -78 -2 -356 -4 -619 -5z"/>
<path d="M21910 15843 c-1 -15 -29 -422 -64 -903 -35 -481 -63 -876 -62 -876
2 -2 941 -42 943 -40 2 1 221 1770 219 1772 0 1 -212 16 -471 33 -258 17 -491
33 -517 36 -47 6 -48 5 -48 -22z"/>
<path d="M7986 15607 c-53 -128 -176 -425 -274 -662 -150 -362 -176 -431 -163
-438 9 -4 273 -104 586 -221 542 -202 570 -211 580 -192 14 28 572 1391 570
1393 0 1 -260 77 -576 168 -315 91 -586 170 -601 175 l-26 8 -96 -231z"/>
<path d="M23060 15793 c0 -10 -43 -409 -94 -888 -51 -478 -93 -871 -92 -871 1
-2 1161 -92 1163 -90 1 1 102 399 226 886 138 546 220 886 213 887 -6 2 -303
21 -661 43 -357 22 -674 42 -702 45 -46 4 -53 3 -53 -12z"/>
<path d="M9202 14756 c-301 -701 -317 -742 -298 -751 11 -5 259 -107 550 -226
l531 -216 13 26 c17 35 669 1575 667 1578 0 1 -258 76 -572 166 l-572 164
-319 -741z"/>
<path d="M4762 14639 l-279 -678 131 -55 c72 -31 316 -134 543 -229 l412 -174
182 411 c100 226 233 524 294 663 l112 251 -558 245 -558 244 -279 -678z"/>
<path d="M10451 14334 c-181 -453 -327 -824 -325 -824 5 0 1175 -309 1190
-315 8 -2 120 293 299 788 158 436 296 813 305 839 l17 46 -578 145 -578 144
-330 -823z"/>
<path d="M6307 14846 c-3 -6 -153 -331 -335 -723 l-329 -711 311 -118 c171
-64 427 -161 568 -214 l257 -98 225 492 c123 270 269 589 324 708 l100 217
-427 175 c-234 96 -485 199 -558 229 -86 36 -133 51 -136 43z"/>
<path d="M11984 14632 c-43 -119 -175 -487 -294 -817 -119 -330 -213 -601
-210 -603 4 -1 297 -58 651 -126 l644 -123 9 26 c13 36 453 1546 452 1548 -1
1 -260 70 -576 153 -316 83 -580 152 -586 155 -8 2 -42 -80 -90 -213z"/>
<path d="M41954 14292 c-86 -307 -206 -726 -264 -932 -59 -206 -107 -376 -106
-376 2 -3 1341 48 1343 50 1 1 112 405 246 897 l243 894 -345 6 c-190 4 -484
9 -652 12 l-307 5 -158 -556z"/>
<path d="M41265 14738 c-379 -44 -691 -80 -692 -82 -2 -2 -410 -1740 -409
-1742 2 -3 1231 38 1233 40 1 1 126 409 278 907 151 497 280 916 285 932 5 15
6 27 2 26 -4 -1 -317 -37 -697 -81z"/>
<path d="M39720 14623 c-388 -58 -706 -106 -707 -107 -2 -2 -380 -1740 -379
-1742 1 -2 1341 88 1343 90 1 1 104 416 228 921 124 506 228 926 230 933 2 6
1 11 -3 11 -4 -1 -324 -48 -712 -106z"/>
<path d="M38065 14414 c-440 -57 -807 -103 -816 -104 -14 0 -37 -126 -146
-787 -72 -434 -130 -789 -129 -789 2 -2 1551 88 1553 90 1 1 78 375 172 831
94 457 173 838 175 848 2 9 1 17 -2 16 -4 -1 -367 -48 -807 -105z"/>
<path d="M13345 14381 c-14 -53 -108 -395 -209 -761 -110 -401 -179 -667 -172
-669 5 -2 244 -57 531 -121 341 -77 522 -113 524 -106 7 16 418 1511 417 1513
-1 1 -222 51 -491 112 -270 60 -509 114 -532 119 l-41 9 -27 -96z"/>
<path d="M7339 13946 c-100 -226 -242 -545 -314 -708 l-133 -297 573 -229
c554 -222 573 -229 583 -208 6 11 156 326 335 698 l325 677 -212 85 c-116 46
-383 154 -593 239 l-382 154 -182 -411z"/>
<path d="M36590 14263 c-267 -25 -486 -46 -487 -47 -1 -1 -77 -341 -168 -756
-91 -415 -170 -771 -174 -791 l-8 -37 521 5 c286 3 522 6 523 7 1 1 67 368
147 816 81 448 148 823 150 833 2 9 -1 16 -7 16 -7 -1 -230 -22 -497 -46z"/>
<path d="M14574 14167 c-3 -12 -101 -339 -218 -727 -167 -554 -209 -706 -198
-708 21 -6 1207 -170 1209 -168 3 2 390 1400 389 1403 -1 1 -258 49 -571 107
-314 58 -578 108 -588 110 -11 3 -19 -3 -23 -17z"/>
<path d="M35270 14093 c-349 -41 -636 -76 -637 -77 -1 -1 -92 -324 -201 -717
l-199 -714 91 -2 c151 -5 1281 -21 1283 -20 1 1 69 355 152 787 83 432 153
793 155 803 2 9 1 17 -2 16 -4 -1 -293 -35 -642 -76z"/>
<path d="M33760 13973 c-344 -52 -626 -96 -627 -97 -3 -2 -301 -1390 -299
-1392 1 -2 1221 38 1223 40 1 1 75 332 163 736 89 404 165 752 169 773 5 20 6
36 2 36 -3 -1 -287 -44 -631 -96z"/>
<path d="M15881 13821 c-261 -901 -367 -1281 -357 -1281 6 0 263 -31 571 -69
308 -38 561 -68 562 -67 1 1 72 307 158 681 86 374 158 685 160 691 2 7 -178
48 -520 116 l-523 105 -51 -176z"/>
<path d="M32255 13843 c-379 -41 -691 -76 -692 -76 -2 -3 -271 -1392 -269
-1393 1 -2 1341 48 1343 50 1 1 70 321 153 711 83 391 155 727 160 748 4 20 5
37 1 36 -3 -1 -316 -35 -696 -76z"/>
<path d="M8736 13611 c-52 -130 -182 -453 -289 -718 l-194 -481 296 -103 c163
-57 427 -149 586 -205 160 -55 291 -100 292 -99 2 1 113 307 247 681 134 373
249 691 254 705 l11 27 -407 157 c-224 87 -473 184 -554 215 l-147 58 -95
-237z"/>
<path d="M2721 13646 c-38 -88 -198 -455 -354 -813 -157 -359 -284 -653 -283
-653 1 0 275 -105 608 -234 l607 -233 272 596 c150 328 316 691 369 808 l98
211 -567 218 c-311 119 -592 227 -623 239 l-57 23 -70 -162z"/>
<path d="M17035 13401 c-48 -196 -122 -498 -165 -671 -65 -269 -74 -316 -61
-319 21 -5 1195 -169 1198 -167 2 2 300 1290 299 1293 -1 1 -260 49 -576 107
-316 58 -582 108 -592 110 -14 3 -30 -51 -103 -353z"/>
<path d="M30690 13678 c-349 -22 -636 -41 -637 -42 -2 -2 -241 -1380 -239
-1382 1 -2 1300 68 1303 70 1 1 54 307 118 681 64 374 118 688 121 698 4 12 0
17 -13 16 -10 -1 -304 -19 -653 -41z"/>
<path d="M29080 13623 c-382 -8 -696 -16 -697 -17 -2 -2 -261 -1450 -259
-1452 1 -2 1520 137 1523 140 1 0 54 296 117 656 64 360 118 663 120 673 4 15
-3 17 -52 15 -32 0 -370 -8 -752 -15z"/>
<path d="M27540 13603 c-311 -8 -566 -16 -567 -17 -2 -2 -271 -1561 -269
-1562 1 -2 1230 117 1233 120 1 0 58 325 128 721 69 396 128 728 131 738 5 15
-1 17 -43 16 -26 -1 -302 -8 -613 -16z"/>
<path d="M26110 13563 c-338 -8 -616 -16 -617 -17 -1 -1 -103 -354 -227 -784
l-224 -783 107 6 c58 3 385 12 726 21 341 9 621 17 622 18 2 1 191 893 317
1494 l14 62 -52 -2 c-28 0 -328 -8 -666 -15z"/>
<path d="M18426 13478 c-9 -40 -74 -320 -145 -623 -79 -342 -123 -551 -117
-553 15 -4 1241 -150 1243 -148 1 1 64 303 141 671 88 423 135 671 128 672 -6
1 -252 11 -546 22 -294 12 -569 23 -611 26 l-77 5 -16 -72z"/>
<path d="M20254 13463 l-451 -3 -32 -153 c-145 -704 -227 -1127 -218 -1127 19
0 1082 -110 1113 -115 l31 -5 137 692 c76 381 139 699 141 706 3 9 -27 11
-133 10 -75 -2 -340 -4 -588 -5z"/>
<path d="M21091 13277 c-17 -73 -91 -384 -165 -692 -92 -387 -129 -561 -121
-563 18 -4 1190 -160 1192 -158 1 1 73 343 161 761 l159 760 -321 7 c-177 3
-445 8 -598 11 l-276 5 -31 -131z"/>
<path d="M22450 13374 c0 -5 -67 -341 -149 -746 -127 -629 -146 -738 -132
-738 9 -1 360 -38 781 -84 421 -46 766 -83 767 -82 1 0 58 361 128 801 69 440
128 807 131 816 4 15 -46 17 -583 23 -323 3 -668 9 -765 12 -98 4 -178 2 -178
-2z"/>
<path d="M9964 13107 c-49 -139 -159 -452 -244 -697 -86 -245 -156 -446 -155
-447 0 -1 267 -92 592 -201 l591 -200 71 187 c40 102 165 431 280 731 114 300
207 546 207 547 -1 1 -278 74 -616 163 -338 88 -620 162 -626 165 -8 2 -45
-92 -100 -248z"/>
<path d="M3802 12490 l-359 -809 561 -234 561 -233 13 25 c7 15 165 382 351
816 210 492 333 792 327 796 -6 4 -252 104 -546 224 -294 119 -537 218 -541
221 -4 2 -169 -360 -367 -806z"/>
<path d="M11401 12842 c-34 -86 -158 -400 -275 -697 -123 -313 -208 -542 -202
-544 6 -3 304 -82 661 -176 418 -111 652 -168 655 -161 6 15 487 1541 486
1543 -1 1 -275 42 -611 92 -335 50 -620 93 -631 96 -20 4 -28 -10 -83 -153z"/>
<path d="M42195 12818 c-352 -11 -641 -21 -642 -22 -1 -1 -108 -370 -237 -820
l-234 -818 176 6 c98 3 430 9 740 12 309 4 562 8 562 10 0 3 210 1002 334
1592 l14 62 -37 -1 c-20 -1 -324 -11 -676 -21z"/>
<path d="M5038 12001 c-295 -689 -352 -827 -339 -834 9 -4 264 -99 566 -211
352 -129 552 -199 557 -192 3 6 142 344 308 751 166 407 315 770 330 807 l28
67 -548 219 -549 220 -353 -827z"/>
<path d="M12873 12738 c-12 -40 -35 -116 -51 -168 -71 -221 -173 -555 -212
-685 -35 -122 -105 -348 -185 -595 -13 -41 -27 -90 -30 -107 -7 -33 -6 -33 32
-33 21 0 101 -5 178 -10 469 -32 597 -40 745 -50 91 -5 177 -12 193 -13 20 -3
27 1 27 13 0 9 9 43 19 76 38 117 63 206 65 229 0 13 4 21 7 19 4 -2 10 13 14
34 3 20 17 73 30 117 102 351 149 515 201 705 9 30 20 66 25 80 21 58 47 165
42 174 -3 5 -1 6 5 2 11 -6 17 19 10 42 -3 10 -153 44 -733 166 -93 20 -192
43 -220 50 -27 8 -71 18 -96 21 l-45 7 -21 -74z"/>
<path d="M40685 12753 c-341 -14 -621 -26 -622 -27 -2 -2 -400 -1531 -399
-1532 2 -2 1261 28 1263 30 1 1 93 330 203 731 111 402 207 751 215 778 l14
47 -27 -1 c-15 -1 -306 -13 -647 -26z"/>
<path d="M14081 12417 c-383 -1296 -407 -1382 -392 -1385 23 -4 1216 -110
1218 -108 7 5 399 1501 394 1503 -3 1 -256 29 -561 62 -305 34 -569 63 -586
65 l-32 4 -41 -141z"/>
<path d="M15424 12298 c-15 -57 -105 -384 -199 -728 l-171 -625 25 -3 c40 -4
1226 -80 1228 -78 6 5 309 1411 304 1413 -3 2 -251 27 -551 58 -300 30 -559
57 -576 60 l-31 5 -29 -102z"/>
<path d="M6541 12136 c-43 -110 -187 -472 -319 -803 l-239 -602 381 -137 c210
-76 476 -172 591 -214 204 -74 210 -76 220 -56 6 11 139 349 296 751 244 624
283 731 270 739 -9 6 -265 125 -568 267 l-552 257 -80 -202z"/>
<path d="M16716 12207 c-15 -61 -91 -384 -170 -717 l-143 -605 36 -3 c61 -5
1286 -60 1288 -58 7 6 279 1281 274 1283 -3 2 -278 48 -611 103 -333 55 -615
102 -627 105 -20 5 -23 -3 -47 -108z"/>
<path d="M18072 11968 c-178 -863 -239 -1178 -228 -1178 6 0 301 -40 656 -89
355 -49 646 -88 647 -87 2 1 231 1430 229 1433 0 0 -271 26 -601 57 -330 31
-614 58 -631 61 l-31 5 -41 -202z"/>
<path d="M1757 11326 c-237 -596 -281 -712 -268 -719 9 -4 272 -99 586 -211
546 -194 570 -202 580 -183 18 36 562 1362 560 1365 -1 1 -266 105 -588 231
l-586 228 -284 -711z"/>
<path d="M19495 11857 c-15 -94 -67 -419 -115 -722 -48 -302 -87 -551 -86
-552 2 -2 1041 -141 1043 -139 6 5 319 1411 314 1413 -3 2 -249 39 -546 83
-297 44 -550 82 -561 85 -20 5 -23 -3 -49 -168z"/>
<path d="M20736 11827 c-167 -930 -241 -1373 -232 -1376 6 -2 254 -59 551
-126 341 -77 542 -118 544 -111 13 34 357 1551 352 1553 -3 2 -262 34 -576 73
-313 38 -582 72 -596 74 -26 5 -27 4 -43 -87z"/>
<path d="M7744 11416 c-81 -215 -211 -561 -289 -768 l-142 -376 531 -229 c339
-147 533 -225 538 -219 3 6 149 349 323 761 174 413 325 769 335 792 l18 42
-583 194 -583 195 -148 -392z"/>
<path d="M22069 11627 c-12 -67 -77 -419 -144 -782 -105 -571 -120 -661 -106
-664 23 -5 1516 -239 1518 -237 6 5 339 1631 334 1633 -3 2 -346 39 -761 83
-415 44 -769 82 -787 84 l-31 4 -23 -121z"/>
<path d="M3247 11297 c-53 -122 -186 -430 -295 -684 l-199 -461 548 -200 548
-199 324 666 324 666 -30 13 c-16 7 -273 103 -570 213 -298 110 -544 202 -548
205 -4 2 -50 -96 -102 -219z"/>
<path d="M9130 11287 c-28 -72 -169 -433 -314 -802 -144 -368 -259 -671 -256
-673 4 -1 227 -42 496 -91 l489 -88 18 36 c10 20 152 335 316 701 185 413 293
667 287 671 -6 4 -227 89 -491 189 -264 100 -483 184 -486 186 -4 2 -30 -56
-59 -129z"/>
<path d="M10038 10302 c-167 -416 -300 -759 -295 -761 6 -2 296 -65 646 -141
622 -134 636 -137 646 -117 13 26 602 1471 601 1474 -1 1 -287 67 -636 148
-349 80 -640 147 -646 150 -7 2 -130 -291 -316 -753z"/>
<path d="M4537 10827 c-53 -122 -186 -430 -295 -684 -110 -255 -199 -463 -198
-463 1 0 246 -94 544 -209 335 -129 543 -204 545 -197 13 31 531 1257 547
1293 l18 41 -516 212 c-285 117 -524 216 -533 221 -14 7 -31 -25 -112 -214z"/>
<path d="M11636 10463 c-53 -148 -174 -484 -269 -748 -96 -264 -170 -481 -165
-483 4 -2 281 -61 615 -131 537 -113 609 -126 616 -112 10 22 544 1525 542
1528 0 1 -273 48 -605 103 -333 55 -612 103 -621 106 -13 4 -34 -45 -113 -263z"/>
<path d="M5711 10316 c-66 -171 -185 -477 -264 -681 -137 -353 -143 -370 -123
-380 11 -5 274 -114 585 -241 551 -224 566 -230 578 -209 6 11 140 306 298
654 157 349 290 642 295 652 9 16 -4 23 -118 67 -70 28 -353 140 -629 250
l-501 199 -121 -311z"/>
<path d="M13026 10218 c-47 -145 -162 -493 -254 -774 l-169 -512 261 -42 c144
-23 423 -68 621 -99 250 -41 361 -55 365 -47 28 69 494 1672 486 1673 -6 1
-254 14 -551 27 -297 14 -570 28 -607 31 l-67 5 -85 -262z"/>
<path d="M14475 10398 c-3 -13 -113 -385 -244 -828 -197 -667 -235 -806 -221
-808 9 -2 279 -27 600 -56 421 -39 586 -50 590 -42 2 6 115 385 250 841 143
481 242 831 236 832 -6 2 -256 18 -556 38 -300 19 -569 37 -597 40 -48 5 -53
3 -58 -17z"/>
<path d="M15805 10298 c-3 -13 -120 -401 -259 -863 -205 -683 -249 -841 -237
-843 25 -4 1216 -110 1218 -108 7 6 489 1741 484 1743 -3 1 -256 20 -561 43
-305 22 -574 42 -597 46 -38 5 -43 3 -48 -18z"/>
<path d="M17086 10087 c-21 -78 -124 -477 -230 -887 l-193 -745 31 -3 c45 -4
1241 -60 1243 -58 1 1 101 396 221 879 206 821 218 877 199 877 -30 0 -1111
68 -1178 74 l-56 5 -37 -142z"/>
<path d="M18510 10135 c0 -4 -489 -1765 -494 -1781 -3 -7 224 -77 624 -191
l629 -180 11 51 c6 28 97 449 204 936 106 487 193 886 192 887 -1 1 -258 63
-571 138 -314 75 -576 138 -582 140 -7 2 -13 3 -13 0z"/>
<path d="M6937 9421 c-238 -551 -281 -657 -268 -664 24 -12 1086 -414 1088
-412 2 1 122 297 267 658 l264 656 -52 20 c-28 11 -268 105 -533 209 l-482
189 -284 -656z"/>
<path d="M892 9349 l-329 -718 101 -40 c55 -21 334 -131 618 -244 l517 -204
310 773 c170 426 308 774 306 774 -4 0 -1057 333 -1137 359 l-56 19 -330 -719z"/>
<path d="M19830 9796 c-6 -28 -97 -449 -204 -936 -126 -578 -189 -887 -182
-889 6 -3 254 -71 551 -151 341 -93 542 -143 544 -136 6 15 488 1901 487 1903
-1 1 -251 56 -556 123 -305 67 -572 125 -592 129 l-37 9 -11 -52z"/>
<path d="M8381 9546 c-23 -61 -133 -361 -244 -666 -112 -305 -203 -556 -203
-557 1 -1 231 -60 513 -131 l512 -130 95 222 c52 121 184 429 294 682 l199
462 -151 31 c-83 17 -336 69 -563 115 l-412 83 -40 -111z"/>
<path d="M2446 9362 c-53 -125 -193 -452 -310 -727 -178 -419 -210 -501 -197
-508 26 -12 1146 -414 1149 -412 4 4 639 1440 637 1442 -1 2 -258 95 -571 208
-313 113 -579 209 -591 214 -20 9 -26 -3 -117 -217z"/>
<path d="M9428 8706 c-151 -374 -271 -682 -267 -684 10 -4 1334 -249 1336
-247 2 1 100 276 218 611 119 335 222 625 230 645 l14 37 -142 36 c-78 19
-361 91 -629 159 l-486 124 -274 -681z"/>
<path d="M21265 9216 c-9 -39 -184 -795 -389 -1681 -239 -1035 -369 -1612
-362 -1614 14 -6 1650 -448 1653 -447 5 3 860 3426 856 3426 -3 0 -1343 298
-1700 378 l-42 10 -16 -72z"/>
<path d="M3552 8396 c-181 -397 -328 -722 -327 -724 1 -1 284 -119 628 -261
l626 -258 9 26 c26 69 564 1487 568 1492 2 4 -130 57 -294 118 -163 61 -428
159 -589 219 l-292 109 -329 -721z"/>
<path d="M10990 8746 c-66 -188 -178 -503 -248 -701 -71 -198 -125 -361 -121
-363 10 -4 1304 -229 1306 -227 2 0 88 266 193 591 105 324 206 635 224 691
l34 101 -467 92 c-256 51 -541 107 -633 124 l-167 33 -121 -341z"/>
<path d="M12454 8583 c-37 -109 -141 -407 -229 -663 -89 -256 -161 -466 -161
-467 1 -1 299 -75 661 -163 363 -88 665 -162 672 -165 8 -3 72 242 200 758
104 419 187 763 184 764 -3 1 -274 30 -601 63 -327 33 -609 62 -626 65 l-32 5
-68 -197z"/>
<path d="M5260 8607 c0 -2 -150 -346 -334 -765 -313 -714 -333 -762 -312 -768
11 -3 284 -85 606 -183 505 -153 586 -176 593 -162 12 25 564 1486 562 1489
-1 1 -235 83 -521 182 -285 99 -536 187 -556 195 -21 8 -38 14 -38 12z"/>
<path d="M13871 8412 c-306 -1143 -337 -1267 -322 -1270 9 -1 264 -22 566 -46
396 -31 551 -40 555 -32 18 43 415 1391 411 1393 -3 1 -251 25 -551 52 -300
28 -561 53 -581 56 l-36 5 -42 -158z"/>
<path d="M409 8157 c-78 -183 -201 -470 -274 -639 l-133 -306 257 -113 c141
-62 417 -183 613 -269 l357 -157 259 691 c142 380 258 692 257 693 -1 2 -258
95 -571 207 -313 112 -581 209 -596 215 l-26 10 -143 -332z"/>
<path d="M15255 8357 c-345 -1310 -352 -1342 -331 -1345 31 -4 1151 -80 1153
-78 7 6 379 1381 374 1383 -3 2 -256 32 -561 68 -305 36 -567 67 -581 69 -26
5 -27 3 -54 -97z"/>
<path d="M16423 7610 l-180 -719 51 -11 c28 -6 301 -66 606 -134 305 -67 557
-119 559 -114 11 30 347 1583 342 1585 -3 1 -258 25 -566 53 -308 27 -576 52
-596 55 l-37 5 -179 -720z"/>
<path d="M6202 7411 l-319 -799 246 -86 c135 -48 417 -146 626 -220 209 -73
381 -132 383 -131 1 1 144 356 316 788 l313 786 -26 9 c-108 39 -1207 445
-1212 448 -4 2 -151 -356 -327 -795z"/>
<path d="M17905 7932 c-32 -130 -117 -482 -190 -782 l-132 -545 41 -12 c23 -7
303 -77 623 -156 l582 -144 189 761 c104 419 188 762 187 763 0 1 -275 79
-610 173 -336 94 -615 172 -622 175 -7 2 -31 -78 -68 -233z"/>
<path d="M1801 7812 c-33 -81 -150 -364 -259 -629 l-199 -482 586 -234 c509
-203 587 -231 594 -217 12 23 494 1294 492 1297 -1 2 -244 88 -541 193 -296
105 -555 197 -575 205 l-37 14 -61 -147z"/>
<path d="M19350 7805 c0 -4 -395 -1438 -415 -1506 l-13 -47 578 -145 579 -144
26 111 c14 61 94 404 179 761 84 358 153 651 152 652 -1 1 -233 70 -516 153
-283 83 -527 155 -542 160 -16 5 -28 7 -28 5z"/>
<path d="M7567 6935 l-314 -764 296 -102 c163 -57 433 -151 601 -210 l305
-106 13 26 c16 31 709 1675 708 1678 -1 1 -285 54 -631 117 -347 64 -637 118
-647 120 -13 3 -76 -141 -331 -759z"/>
<path d="M3086 7331 c-41 -97 -171 -402 -289 -678 l-214 -502 638 -239 638
-239 294 671 c182 416 289 673 283 677 -6 4 -261 101 -566 217 -305 116 -590
224 -632 240 l-77 30 -75 -177z"/>
<path d="M9236 7121 c-69 -157 -238 -540 -374 -851 -142 -323 -244 -567 -238
-569 6 -3 270 -75 586 -161 560 -153 575 -156 585 -136 6 11 163 414 351 896
l340 875 -55 13 c-31 7 -284 60 -563 116 l-507 103 -125 -286z"/>
<path d="M10546 7017 c-31 -84 -179 -485 -329 -892 -248 -672 -271 -740 -253
-743 41 -8 1211 -130 1214 -127 7 6 770 1605 766 1605 -7 0 -1317 300 -1331
305 -7 2 -33 -56 -67 -148z"/>
<path d="M4520 6876 c-28 -66 -162 -384 -299 -706 -136 -322 -247 -586 -246
-587 1 -2 244 -79 541 -173 296 -94 564 -179 596 -189 l56 -19 41 96 c22 54
148 355 279 669 l240 573 -127 49 c-69 27 -329 130 -578 229 l-452 179 -51
-121z"/>
<path d="M11980 6636 c-61 -138 -231 -523 -378 -856 l-268 -605 36 -3 c66 -5
1295 -60 1298 -58 6 6 629 1526 625 1526 -5 0 -1156 237 -1185 244 -13 3 -39
-48 -128 -248z"/>
<path d="M13346 6322 c-69 -158 -222 -505 -339 -772 -167 -381 -210 -486 -198
-489 29 -7 1326 -219 1328 -216 8 6 608 1610 604 1612 -3 2 -278 34 -611 73
-333 38 -617 72 -631 74 -26 5 -30 -1 -153 -282z"/>
<path d="M14684 5957 c-114 -298 -257 -672 -319 -832 -77 -200 -108 -291 -99
-293 7 -2 302 -41 656 -86 450 -58 644 -80 648 -72 20 48 555 1682 551 1683
-3 2 -267 32 -586 67 -319 36 -594 67 -612 70 l-31 4 -208 -541z"/>
<path d="M5734 6211 c-65 -152 -192 -451 -284 -666 -126 -296 -163 -392 -153
-398 7 -4 260 -117 562 -251 l550 -243 66 151 c37 83 176 399 309 701 134 303
242 551 241 552 -1 2 -265 99 -588 217 l-586 213 -117 -276z"/>
<path d="M16290 6315 c0 -3 -528 -1553 -555 -1627 l-24 -67 440 -242 c242
-133 443 -238 447 -235 6 6 630 1968 628 1973 -1 1 -195 43 -431 93 -237 50
-447 95 -467 100 -21 4 -38 7 -38 5z"/>
<path d="M17425 6059 c-31 -83 -691 -1965 -690 -1967 1 -1 246 -103 543 -226
l541 -223 315 943 314 943 -492 265 c-271 146 -500 268 -509 272 -10 3 -19 0
-22 -7z"/>
<path d="M7034 5716 c-76 -171 -222 -500 -324 -731 -177 -398 -185 -421 -166
-430 11 -5 292 -118 625 -251 509 -202 607 -238 614 -225 10 21 574 1545 572
1548 0 1 -267 92 -592 201 l-592 200 -137 -312z"/>
<path d="M8441 5376 c-39 -94 -178 -430 -309 -746 l-238 -575 25 -12 c14 -6
287 -106 606 -223 319 -117 583 -214 586 -216 4 -2 141 367 306 821 l300 824
-471 116 c-259 64 -530 131 -603 149 l-132 33 -70 -171z"/>
<path d="M18573 5433 c-2 -10 -138 -436 -302 -948 l-298 -930 26 -13 c14 -7
249 -106 521 -221 l495 -207 14 30 c7 17 141 375 298 796 156 420 286 768 289
771 4 6 -1019 739 -1032 739 -3 0 -8 -8 -11 -17z"/>
<path d="M9661 4657 c-39 -105 -151 -408 -249 -672 -152 -409 -176 -481 -163
-488 25 -12 1086 -394 1089 -392 8 6 669 1555 663 1555 -12 0 -1225 180 -1247
185 -20 4 -28 -12 -93 -188z"/>
<path d="M11160 4631 c-7 -14 -163 -368 -347 -786 -184 -418 -339 -767 -344
-777 -7 -14 73 -49 590 -256 l599 -239 375 931 c205 512 373 932 373 933 -1 1
-271 49 -601 107 -330 59 -607 108 -616 110 -11 2 -21 -6 -29 -23z"/>
<path d="M19691 4608 c-5 -13 -135 -378 -291 -813 -155 -434 -284 -793 -286
-796 -6 -11 857 -522 866 -513 4 5 132 344 285 754 152 409 278 748 281 751 3
6 -829 639 -841 639 -3 0 -9 -10 -14 -22z"/>
<path d="M12128 3492 c-345 -806 -412 -968 -399 -975 9 -4 329 -124 711 -266
587 -217 696 -255 703 -242 9 18 804 2245 803 2248 -1 1 -307 45 -681 97 -374
53 -690 98 -701 101 -20 4 -53 -69 -436 -963z"/>
<path d="M14082 4232 c-32 -92 -799 -2264 -811 -2293 l-10 -27 519 -199 519
-200 520 1298 c285 715 515 1299 511 1299 -13 0 -1183 170 -1207 175 -18 4
-24 -3 -41 -53z"/>
<path d="M15208 3366 c-208 -516 -271 -683 -261 -689 7 -4 226 -104 487 -221
l475 -213 93 286 c51 157 152 466 224 686 72 220 130 401 130 402 -1 1 -198
99 -438 217 l-436 214 -274 -682z"/>
<path d="M20651 3909 c-4 -13 -129 -359 -276 -769 -147 -410 -269 -748 -271
-751 -5 -9 1025 -603 1032 -596 3 2 65 319 138 703 l134 699 -167 168 c-91 93
-259 259 -373 369 -195 188 -208 199 -217 177z"/>
<path d="M16349 3051 c-95 -267 -203 -569 -239 -671 -58 -160 -65 -186 -51
-193 9 -4 261 -97 561 -205 334 -122 547 -194 550 -188 2 6 95 290 205 631
161 497 199 622 188 628 -8 5 -245 116 -528 246 l-513 238 -173 -486z"/>
<path d="M17620 2822 c-33 -103 -127 -391 -209 -639 -82 -249 -148 -453 -147
-453 1 0 218 -89 483 -199 l482 -198 10 31 c57 180 329 1031 350 1097 l29 86
-469 231 -468 230 -61 -186z"/>
<path d="M18741 2478 c-5 -13 -102 -286 -216 -608 -114 -322 -209 -588 -211
-592 -3 -4 187 -103 420 -220 l426 -213 14 40 c24 69 384 1069 395 1097 l10
26 -408 246 c-225 135 -411 246 -415 246 -4 0 -10 -10 -15 -22z"/>
<path d="M19715 1948 c-3 -7 -91 -258 -195 -558 -105 -300 -197 -561 -205
-582 l-14 -36 670 -382 c368 -211 672 -380 675 -377 3 3 61 268 130 589 68
320 125 591 128 600 3 13 -133 103 -584 387 -323 204 -591 371 -594 371 -4 0
-9 -6 -11 -12z"/>
</g>
</svg>
